<?xml version="1.0" standalone="no"?>
<!DOCTYPE svg PUBLIC "-//W3C//DTD SVG 20010904//EN"
 "http://www.w3.org/TR/2001/REC-SVG-20010904/DTD/svg10.dtd">
<svg version="1.0" xmlns="http://www.w3.org/2000/svg"
 width="473.000000pt" height="527.000000pt" viewBox="0 0 473.000000 527.000000"
 preserveAspectRatio="xMidYMid meet">

<g transform="translate(0.000000,527.000000) scale(0.100000,-0.100000)"
fill="#000000" stroke="none">
<path d="M2360 3998 c-47 -23 -186 -84 -310 -138 -395 -171 -1015 -452 -1022
-464 -4 -6 -8 -376 -8 -822 0 -760 1 -812 18 -826 9 -8 49 -32 87 -53 251
-136 930 -497 1080 -575 99 -51 184 -97 190 -101 5 -5 19 -9 32 -9 l23 0 2
198 c3 260 -1 371 -14 405 -12 30 -18 33 -633 332 -99 48 -188 94 -197 103
-17 14 -18 50 -18 492 0 545 -12 484 105 538 39 17 201 92 360 165 160 74 311
142 337 152 91 34 89 29 95 312 4 212 3 253 -11 285 -9 20 -19 39 -23 41 -5 3
-46 -13 -93 -35z"/>
<path d="M2553 4022 c-10 -6 -12 -317 -10 -1487 2 -1420 3 -1480 20 -1483 10
-2 73 20 140 49 220 95 750 348 859 411 238 136 385 330 428 563 17 94 24 415
11 550 -13 149 -31 217 -83 325 -75 156 -230 281 -398 321 -30 7 -102 13 -160
12 -96 0 -202 -21 -305 -60 -7 -2 -12 92 -14 288 -3 324 -4 327 -69 355 -19 8
-38 12 -41 9 -3 -3 5 -8 17 -12 12 -3 22 -9 22 -14 0 -5 -15 -2 -32 5 -18 8
-49 21 -68 29 -19 8 -59 25 -87 37 -29 12 -53 28 -53 35 0 7 -34 26 -75 44
-81 34 -84 34 -102 23z m37 -12 c8 -5 11 -10 5 -10 -5 0 -17 5 -25 10 -8 5
-10 10 -5 10 6 0 17 -5 25 -10z m100 -41 c52 -27 23 -22 -35 7 -27 13 -39 21
-25 18 14 -4 41 -15 60 -25z m850 -716 c95 -26 189 -82 232 -139 l22 -29 -35
32 c-74 69 -244 143 -329 143 -14 0 -32 5 -40 10 -21 13 81 2 150 -17z m-203
11 c-3 -3 -12 -4 -19 -1 -8 3 -5 6 6 6 11 1 17 -2 13 -5z m68 -467 c24 -14 50
-40 65 -67 25 -45 25 -45 25 -315 0 -240 -2 -276 -19 -320 -34 -92 -111 -152
-229 -179 -78 -18 -183 -21 -192 -6 -9 14 -20 780 -12 812 7 25 83 67 157 87
68 18 162 13 205 -12z"/>
<path d="M2745 3953 c13 -12 146 -65 151 -60 2 2 -28 17 -68 33 -98 39 -95 38
-83 27z"/>
</g>
</svg>
